Coordinates
version=1
nRows=6
nColumns=36
inDegrees=yes

Units are S.I. units (second, meters, Newtons, ...)
If the header above contains a line with 'inDegrees', this indicates whether rotational values are in degrees (yes) or radians (no).

endheader
time	pelvis_tilt	pelvis_list	pelvis_rotation	pelvis_tx	pelvis_ty	pelvis_tz	hip_flexion_r	hip_adduction_r	hip_rotation_r	knee_angle_r	knee_angle_r_beta	ankle_angle_r	subtalar_angle_r	mtp_angle_r	hip_flexion_l	hip_adduction_l	hip_rotation_l	knee_angle_l	knee_angle_l_beta	ankle_angle_l	subtalar_angle_l	mtp_angle_l	lumbar_extension	lumbar_bending	lumbar_rotation	arm_flex_r	arm_add_r	arm_rot_r	elbow_flex_r	pro_sup_r	arm_flex_l	arm_add_l	arm_rot_l	elbow_flex_l	pro_sup_l
      1.47000000	     -7.48858982	     -0.10362423	     -4.95752351	      0.99919778	      0.90707160	     -0.23241008	     35.02754657	      1.20809231	     -3.21165686	     48.99931636	      0.85519940	      1.40666178	     -5.46835430	     -7.27977492	      7.84399593	      3.66047810	      5.56990596	     12.16865411	      0.21238308	     13.18944484	     -6.50656259	     -7.27977492	     -9.77292143	    -22.32404417	     -9.25989455	     -7.76525202	    -17.12678451	     15.97438468	     43.87590819	    103.68195288	      4.35173472	    -17.53592059	     -4.60846526	     47.56482682	    101.61994240
      1.48000000	     -7.58150017	     -0.07014371	     -4.67833133	      1.00795233	      0.90639755	     -0.23251641	     35.50749661	      1.42461480	     -2.58603440	     46.51264638	      0.81179882	      1.53645469	     -5.56537600	     -7.28234902	      7.16744413	      3.76257654	      5.87483783	     11.82741789	      0.20642738	     13.52754125	     -6.43592229	     -7.28234902	     -9.78626510	    -22.21437221	     -9.31055127	     -7.59025855	    -17.00061172	     15.92019175	     43.69430168	    103.66241786	      4.32499437	    -17.59905642	     -3.99502459	     47.71139432	    101.65267471
      1.49000000	     -7.60888609	      0.02200143	     -4.36661893	      1.01676945	      0.90581954	     -0.23271576	     35.85136252	      1.53288174	     -1.96942221	     43.93335074	      0.76678162	      1.48880497	     -5.87166897	     -7.28908661	      6.40804647	      3.93228259	      6.16502546	     11.47487581	      0.20027436	     13.91893145	     -6.25776982	     -7.28908661	     -9.87746600	    -22.13370567	     -9.31426769	     -7.45196772	    -16.84252427	     15.82707039	     43.47656615	    103.62971129	      4.38898192	    -17.75024904	     -3.03817597	     47.71763390	    101.56673165
      1.50000000	     -7.79292962	      0.16695242	     -4.06616333	      1.02551851	      0.90490264	     -0.23291769	     36.33158774	      1.59051788	     -1.25526971	     41.33489581	      0.72143003	      1.68089215	     -5.64529044	     -7.29104152	      5.87391136	      4.13781111	      6.42285219	     11.22495333	      0.19591239	     14.19142313	     -6.14313053	     -7.29104152	     -9.77023479	    -22.06689576	     -9.40287603	     -7.35498291	    -16.70681765	     15.73237906	     43.47327411	    103.61571710	      4.26893748	    -17.76998252	     -2.71191955	     47.81550191	    101.54047375
      1.51000000	     -7.75949694	      0.28161938	     -3.74443103	      1.03441624	      0.90429424	     -0.23315611	     36.44657909	      1.61518291	     -0.63278128	     38.59229410	      0.67356260	      1.86444967	     -5.58658243	     -7.29543421	      5.01910151	      4.31425226	      6.67598425	     10.84921012	      0.18935444	     14.67617834	     -5.92140416	     -7.29543421	     -9.95849088	    -21.96315130	     -9.47571694	     -7.22171336	    -16.54686651	     15.55080084	     43.33117444	    103.57692910	      4.23949473	    -17.86230255	     -2.14131356	     47.89295103	    101.42085940
      1.52000000	     -7.94813914	      0.47520529	     -3.42648330	      1.04326610	      0.90320027	     -0.23335933	     36.80374956	      1.55807600	      0.02753128	     35.88402098	      0.62629431	      2.05814409	     -5.24671735	     -7.29731942	      4.48963397	      4.55618010	      6.95653942	     10.65131968	      0.18590060	     14.92563450	     -5.71206775	     -7.29731942	     -9.83445742	    -21.90843363	     -9.59013526	     -7.15294601	    -16.38564865	     15.45103700	     43.38728428	    103.56389491	      4.06447133	    -17.88500100	     -1.86225124	     47.88582746	    101.36456302
